<?xml version="1.0" encoding="utf-8"?>
<!-- Generator: Adobe Illustrator 21.1.0, SVG Export Plug-In . SVG Version: 6.00 Build 0)  -->
<svg version="1.1" id="Layer_1" xmlns="http://www.w3.org/2000/svg" xmlns:xlink="http://www.w3.org/1999/xlink" x="0px" y="0px"
	 viewBox="0 0 708 267" style="enable-background:new 0 0 708 267;" xml:space="preserve">
<style type="text/css">
	.st0{fill:none;}
	.st1{fill:#001D5D;}
	.st2{enable-background:new    ;}
</style>
<title>Artboard</title>
<desc>Created with Sketch.</desc>
<g id="Page-1">
	<g id="Artboard">
		<path id="Path-2" class="st0" d="M0,0"/>
		<g id="Group">
			<polyline id="Path-4" class="st1" points="34.2,125.7 0,179 359.8,179 430.4,68.4 194.8,68.4 203.3,54.7 551.6,54.7 545.6,68.4 
				458.1,68.4 428.5,110.7 485.8,110.7 528.7,179 652,179 600.7,100.6 646.2,100.6 708,0 114.2,0 43.6,110.7 280,110.7 270.9,125.7 
							"/>
			<g class="st2">
				<path class="st1" d="M35.3,254.7c-6.2,0-10.8-1.3-14-4c-3.2-2.7-4.9-6.4-5.2-11.2h10.1c0.3,2.4,1.1,4.2,2.4,5.6
					c1.3,1.3,3.6,2,6.7,2c2.3,0,4.1-0.6,5.6-1.7c1.4-1.1,2.1-2.6,2.1-4.5c0-1.9-0.6-3.2-1.8-4c-1.2-0.8-3.5-1.5-7-2
					c-6.1-0.8-10.4-2.2-12.9-4.3c-2.6-2.1-3.8-5.4-3.8-9.8c0-4,1.5-7.3,4.6-9.9c3.1-2.6,7.2-3.9,12.3-3.9c5.2,0,9.3,1.2,12.3,3.5
					c3,2.3,4.7,5.8,5.1,10.4H42c-0.6-4.1-3.2-6.2-7.7-6.2c-2.3,0-4,0.5-5.2,1.4c-1.2,1-1.8,2.2-1.8,3.8c0,1.7,0.6,3,1.7,3.9
					c1.1,0.8,3.5,1.5,6.9,2c6,0.8,10.3,2.2,13,4.2c2.7,2,4,5.3,4,9.9c0,4.2-1.6,7.8-4.8,10.6C44.9,253.3,40.6,254.7,35.3,254.7z"/>
				<path class="st1" d="M65.4,265.6l6-15L57.9,220H68l8.3,20.4l7.6-20.4h9l-18.4,45.6H65.4z"/>
				<path class="st1" d="M100,254v-34h9.4v5.4c0.9-1.8,2.3-3.3,4.2-4.5c1.9-1.1,4.2-1.7,6.9-1.7c3.5,0,6.3,1.1,8.4,3.3
					c2.1,2.2,3.1,5.5,3.1,9.8V254h-9.4v-20.3c0-2.3-0.5-4.1-1.4-5.2c-1-1.1-2.5-1.7-4.6-1.7c-2.1,0-3.8,0.6-5.1,1.9
					c-1.3,1.3-2,3.1-2,5.6V254H100z"/>
				<path class="st1" d="M154.7,254.7c-4.3,0-7.8-1.5-10.6-4.5c-2.8-3-4.2-7.2-4.2-12.7V237c0-5.5,1.4-9.8,4.2-13
					c2.8-3.2,6.4-4.8,10.8-4.8c5,0,8.6,2,10.7,5.9v-20.5h9.4V254h-9.4v-5.7c-0.9,1.8-2.4,3.3-4.4,4.5
					C159.3,254.1,157.1,254.7,154.7,254.7z M157.5,247.4c2.6,0,4.6-0.9,6.1-2.6c1.5-1.7,2.3-4.3,2.3-7.6v-0.5c0-3.3-0.7-5.9-2.1-7.6
					c-1.4-1.7-3.4-2.6-6-2.6c-2.6,0-4.7,0.9-6.1,2.6c-1.4,1.8-2.1,4.3-2.1,7.7v0.5c0,3.3,0.7,5.8,2.1,7.5
					C153.2,246.5,155.1,247.4,157.5,247.4z"/>
				<path class="st1" d="M201.1,254.7c-5.2,0-9.5-1.5-12.8-4.6c-3.3-3.1-4.9-7.3-4.9-12.6v-0.5c0-5.3,1.7-9.6,5-12.8
					c3.3-3.3,7.5-4.9,12.5-4.9c4.8,0,8.7,1.5,11.9,4.4c3.1,2.9,4.7,7.2,4.7,12.9v2.6h-24.5c0.1,2.8,0.9,5,2.4,6.6
					c1.5,1.6,3.5,2.3,6,2.3c4.1,0,6.4-1.6,7.1-4.7h8.9c-0.6,3.7-2.3,6.5-5.1,8.5C209.4,253.7,205.7,254.7,201.1,254.7z M193,233.3
					h15.2c-0.3-5.1-2.8-7.6-7.4-7.6c-2.1,0-3.9,0.7-5.2,2C194.2,229,193.4,230.9,193,233.3z"/>
				<path class="st1" d="M225.6,254v-34h9.4v6.5c2.2-4.6,5.8-7,11-7v8.8c-3.6,0-6.4,0.6-8.2,2c-1.8,1.4-2.8,3.6-2.8,6.7v17H225.6z"
					/>
			</g>
			<g class="st2">
				<path class="st1" d="M271.8,254v-46.5h16.6c5.6,0,10,1.2,13.2,3.5c3.2,2.4,4.7,5.9,4.7,10.6v0.3c0,6.3-3.2,10.4-9.6,12.4
					l12.3,19.8h-11.2l-11.1-17.9h-4.5V254H271.8z M282.3,228.9h5.9c5.3,0,7.9-2.2,7.9-6.7V222c0-2.3-0.7-3.9-2-4.9
					c-1.3-1-3.3-1.5-5.9-1.5h-5.9V228.9z"/>
				<path class="st1" d="M331,254.7c-5.2,0-9.5-1.5-12.8-4.6c-3.3-3.1-4.9-7.3-4.9-12.6v-0.5c0-5.3,1.7-9.6,5-12.8
					c3.3-3.3,7.5-4.9,12.5-4.9c4.8,0,8.7,1.5,11.9,4.4c3.1,2.9,4.7,7.2,4.7,12.9v2.6h-24.5c0.1,2.8,0.9,5,2.4,6.6
					c1.5,1.6,3.5,2.3,6,2.3c4.1,0,6.4-1.6,7.1-4.7h8.9c-0.6,3.7-2.3,6.5-5.1,8.5C339.4,253.7,335.7,254.7,331,254.7z M323,233.3
					h15.2c-0.3-5.1-2.8-7.6-7.4-7.6c-2.1,0-3.9,0.7-5.2,2C324.2,229,323.3,230.9,323,233.3z"/>
				<path class="st1" d="M370.9,254.7c-5.1,0-9.3-1.5-12.6-4.6c-3.3-3.1-4.9-7.3-4.9-12.7v-0.5c0-5.3,1.7-9.6,5-12.8
					c3.4-3.2,7.5-4.8,12.5-4.8c4.3,0,8,1.1,11,3.2c3,2.1,4.6,5.5,5,10h-8.9c-0.6-3.9-2.9-5.8-6.9-5.8c-2.5,0-4.4,0.9-5.9,2.7
					c-1.5,1.8-2.2,4.3-2.2,7.5v0.5c0,3.4,0.7,5.9,2.2,7.7c1.5,1.8,3.5,2.6,6.1,2.6c2,0,3.6-0.6,4.9-1.7c1.3-1.1,2.1-2.8,2.3-4.9h8.5
					c-0.3,4.1-1.8,7.4-4.7,9.9C379.6,253.5,375.8,254.7,370.9,254.7z"/>
				<path class="st1" d="M410.9,254.7c-5.2,0-9.4-1.6-12.8-4.8s-5.1-7.4-5.1-12.6v-0.5c0-5.2,1.7-9.5,5.1-12.7s7.7-4.9,12.9-4.9
					s9.5,1.6,12.8,4.8c3.4,3.2,5,7.4,5,12.6v0.5c0,5.3-1.7,9.5-5.1,12.7S416.1,254.7,410.9,254.7z M404.8,244.8
					c1.5,1.8,3.5,2.8,6.1,2.8c2.6,0,4.7-0.9,6.1-2.7c1.5-1.8,2.2-4.4,2.2-7.6v-0.5c0-3.3-0.7-5.8-2.2-7.6c-1.5-1.8-3.5-2.8-6.1-2.8
					c-2.6,0-4.6,0.9-6.1,2.7c-1.5,1.8-2.2,4.3-2.2,7.6v0.5C402.6,240.4,403.4,243,404.8,244.8z"/>
				<path class="st1" d="M437.2,254v-34h9.4v6.5c2.2-4.6,5.8-7,11-7v8.8c-3.6,0-6.4,0.6-8.2,2c-1.8,1.4-2.8,3.6-2.8,6.7v17H437.2z"
					/>
				<path class="st1" d="M477.9,254.7c-4.3,0-7.8-1.5-10.6-4.5c-2.8-3-4.2-7.2-4.2-12.7V237c0-5.5,1.4-9.8,4.2-13
					c2.8-3.2,6.4-4.8,10.8-4.8c5,0,8.6,2,10.7,5.9v-20.5h9.4V254h-9.4v-5.7c-0.9,1.8-2.4,3.3-4.4,4.5
					C482.4,254.1,480.2,254.7,477.9,254.7z M480.6,247.4c2.6,0,4.6-0.9,6.1-2.6c1.5-1.7,2.3-4.3,2.3-7.6v-0.5c0-3.3-0.7-5.9-2.1-7.6
					c-1.4-1.7-3.4-2.6-6-2.6c-2.6,0-4.7,0.9-6.1,2.6s-2.1,4.3-2.1,7.7v0.5c0,3.3,0.7,5.8,2.1,7.5
					C476.3,246.5,478.2,247.4,480.6,247.4z"/>
				<path class="st1" d="M517.2,213.9c-1,1-2.3,1.5-3.8,1.5c-1.5,0-2.8-0.5-3.8-1.5c-1-1-1.5-2.2-1.5-3.7c0-1.5,0.5-2.7,1.5-3.7
					c1-1,2.3-1.5,3.8-1.5c1.5,0,2.8,0.5,3.8,1.5c1,1,1.6,2.2,1.6,3.7C518.8,211.7,518.3,213,517.2,213.9z M508.8,254v-34h9.4v34
					H508.8z"/>
				<path class="st1" d="M528.8,254v-34h9.4v5.4c0.9-1.8,2.3-3.3,4.2-4.5c1.9-1.1,4.2-1.7,6.9-1.7c3.5,0,6.3,1.1,8.4,3.3
					c2.1,2.2,3.1,5.5,3.1,9.8V254h-9.4v-20.3c0-2.3-0.5-4.1-1.4-5.2c-1-1.1-2.5-1.7-4.6-1.7c-2.1,0-3.8,0.6-5.1,1.9
					c-1.3,1.3-2,3.1-2,5.6V254H528.8z"/>
				<path class="st1" d="M585.9,266.5c-10.2,0-15.9-3.9-16.9-11.8h9.4c0.7,3.3,3.2,4.9,7.5,4.9c5.7,0,8.6-2.8,8.6-8.3v-5.1
					c-1,1.8-2.5,3.3-4.4,4.5c-2,1.2-4.1,1.8-6.5,1.8c-4.2,0-7.8-1.5-10.6-4.4c-2.8-2.9-4.2-6.9-4.2-11.8v-0.5
					c0-4.8,1.4-8.8,4.3-11.9s6.4-4.7,10.7-4.7c5,0,8.6,2,10.8,5.9V220h9.4v31.3c0,5-1.6,8.8-4.7,11.3
					C596,265.3,591.6,266.5,585.9,266.5z M586.3,245.4c2.5,0,4.5-0.8,6.1-2.5s2.3-3.9,2.3-6.8v-0.5c0-2.9-0.7-5.2-2.2-6.8
					c-1.5-1.6-3.5-2.5-6-2.5c-2.6,0-4.6,0.8-6,2.5c-1.4,1.7-2.1,4-2.1,6.8v0.5c0,2.8,0.7,5,2.2,6.7C582,244.6,584,245.4,586.3,245.4
					z"/>
				<path class="st1" d="M626.5,254.7c-4.6,0-8.2-1-10.7-2.9c-2.6-2-3.9-4.8-4.1-8.5h8.8c0.2,1.6,0.8,2.8,1.7,3.6
					c0.9,0.8,2.3,1.2,4.3,1.2c3.6,0,5.3-1.2,5.3-3.7c0-1.1-0.5-2-1.6-2.6c-1-0.6-2.8-1.1-5.3-1.4c-4.6-0.7-7.8-1.8-9.7-3.4
					c-1.9-1.6-2.8-4-2.8-7.2c0-3.4,1.3-6,3.9-7.8c2.6-1.8,5.8-2.8,9.5-2.8c8.6,0,13.3,3.5,14,10.5h-8.6c-0.5-2.7-2.3-4.1-5.3-4.1
					c-1.5,0-2.7,0.3-3.5,1c-0.8,0.7-1.3,1.5-1.3,2.5c0,1.1,0.5,1.9,1.4,2.4c0.9,0.5,2.7,1,5.2,1.3c4.6,0.7,7.9,1.7,10,3.3
					c2.1,1.5,3.2,4,3.2,7.4c0,3.6-1.2,6.4-3.7,8.3C634.6,253.8,631.1,254.7,626.5,254.7z"/>
			</g>
			<g class="st2">
				<path class="st1" d="M650.3,228.5v-16.4h-5.7v-4.5h17.2v4.5H656v16.4H650.3z M664.8,228.5v-20.9h7.1l4.6,11.9l4.6-11.9h7.2v20.9
					h-5.8v-13.5l-5.5,13.5h-1.8l-5.4-13.5v13.5H664.8z"/>
			</g>
		</g>
	</g>
	<path id="Path-3" class="st1" d="M0,0"/>
</g>
</svg>
